<svg width="16" height="19" viewBox="0 0 16 19" fill="none" xmlns="http://www.w3.org/2000/svg">
<path d="M15.6647 14.8068C15.3774 15.4706 15.0374 16.0816 14.6434 16.6434C14.1064 17.4092 13.6667 17.9393 13.3279 18.2337C12.8026 18.7169 12.2398 18.9644 11.6371 18.9784C11.2045 18.9784 10.6827 18.8553 10.0753 18.6055C9.46598 18.3568 8.906 18.2337 8.39396 18.2337C7.85696 18.2337 7.28102 18.3568 6.66499 18.6055C6.04801 18.8553 5.55099 18.9855 5.17098 18.9984C4.59305 19.023 4.017 18.7685 3.44201 18.2337C3.07501 17.9135 2.61598 17.3647 2.06607 16.5871C1.47607 15.7567 0.991001 14.7939 0.610992 13.6961C0.204016 12.5104 0 11.3622 0 10.2507C0 8.97735 0.27507 7.87913 0.82603 6.95883C1.25904 6.21961 1.83509 5.6365 2.55606 5.20842C3.27703 4.78035 4.05605 4.56221 4.89497 4.54825C5.35401 4.54825 5.95597 4.69028 6.70403 4.9694C7.44998 5.24947 7.92895 5.3915 8.13894 5.3915C8.29594 5.3915 8.82802 5.22543 9.73003 4.89435C10.583 4.58731 11.3029 4.46017 11.8927 4.51025C13.4908 4.63926 14.6915 5.26941 15.49 6.40468C14.0607 7.27092 13.3537 8.48418 13.3677 10.0406C13.3806 11.2529 13.8203 12.2618 14.6845 13.0628C15.0761 13.4346 15.5134 13.7219 16 13.926C15.8945 14.2321 15.7831 14.5253 15.6647 14.8068ZM11.9994 0.380106C11.9994 1.33032 11.6524 2.21754 10.9606 3.03874C10.1258 4.01498 9.11599 4.5791 8.02099 4.49008C8.00704 4.37608 7.99894 4.25611 7.99894 4.13003C7.99894 3.21782 8.39596 2.24158 9.10098 1.44337C9.45297 1.03922 9.90063 0.703178 10.4435 0.43511C10.9852 0.171042 11.4976 0.0250042 11.9795 0C11.9936 0.127026 11.9994 0.254076 11.9994 0.380106Z" fill="#292929"/>
</svg>
