<svg width="288" height="153" viewBox="0 0 288 153" fill="none" xmlns="http://www.w3.org/2000/svg">
<g clip-path="url(#clip0_2066_36576)">
<path d="M211.964 68.3947C211.808 65.933 211.082 63.5258 209.831 61.3226C209.472 60.6884 209.069 60.074 208.626 59.4828C207.086 57.4275 205.096 55.6665 202.773 54.3041C202.107 53.9111 201.415 53.554 200.701 53.2347C198.211 52.1277 195.49 51.4854 192.707 51.3477C192.309 51.3263 191.908 51.3167 191.506 51.3167C191.104 51.3167 190.703 51.3263 190.305 51.3477C187.522 51.4854 184.802 52.1277 182.312 53.2347C181.595 53.5544 180.9 53.9123 180.232 54.3062C177.909 55.6681 175.918 57.4292 174.379 59.4849C173.934 60.076 173.529 60.6904 173.168 61.3248C171.917 63.5279 171.191 65.9351 171.035 68.3969C171.011 68.7494 171 69.1041 171 69.4598C171 69.8156 171.011 70.1703 171.035 70.5228C171.187 72.9863 171.911 75.3957 173.161 77.6013C173.522 78.2357 173.926 78.8501 174.372 79.4412C175.912 81.4964 177.902 83.2574 180.225 84.6199C180.893 85.012 181.587 85.368 182.304 85.686C184.794 86.793 187.515 87.4353 190.297 87.573C190.696 87.5944 191.097 87.6041 191.499 87.6041C191.901 87.6041 192.302 87.5944 192.7 87.573C195.483 87.4353 198.203 86.793 200.693 85.686C201.41 85.368 202.105 85.012 202.773 84.6199C205.096 83.2574 207.086 81.4964 208.626 79.4412C209.07 78.85 209.472 78.2356 209.832 77.6013C211.083 75.3982 211.809 72.991 211.965 70.5292C211.989 70.1767 212 69.822 212 69.4663C212 69.1105 211.989 68.7473 211.964 68.3947Z" fill="url(#paint0_linear_2066_36576)"/>
<path d="M203.947 82.8069C203.898 82.8403 203.839 82.8592 203.777 82.8606C203.808 82.8624 203.839 82.8586 203.868 82.8493C203.897 82.8401 203.924 82.8257 203.947 82.8069Z" fill="#E9E9E9"/>
<path d="M203.97 82.7981C203.963 82.8048 203.955 82.8091 203.946 82.8104C203.958 82.8104 203.958 82.7981 203.97 82.7981Z" fill="#E9E9E9"/>
<path d="M197.358 82.1438C197.329 82.166 197.307 82.1945 197.294 82.2264C197.282 82.2583 197.278 82.2925 197.285 82.3259C197.281 82.2927 197.286 82.2591 197.298 82.2276C197.311 82.1961 197.331 82.1675 197.358 82.1438Z" fill="#E9E9E9"/>
<path d="M206.634 80.4304L206.61 80.4543L206.634 80.4304Z" fill="#E9E9E9"/>
<path d="M206.695 80.29C206.693 80.3379 206.672 80.3836 206.635 80.4186C206.656 80.4034 206.673 80.3836 206.684 80.3612C206.694 80.3387 206.698 80.3142 206.695 80.29Z" fill="#E9E9E9"/>
<path d="M210.232 64.6028C210.203 64.6573 210.15 64.6996 210.086 64.7206L208.573 65.1597C208.56 65.1597 208.56 65.1597 208.548 65.1704C208.555 65.1711 208.562 65.1705 208.568 65.1686C208.574 65.1668 208.58 65.1637 208.585 65.1597L210.099 64.7206C210.129 64.7098 210.156 64.6938 210.179 64.6736C210.202 64.6534 210.22 64.6293 210.232 64.6028Z" fill="#E9E9E9"/>
<path d="M204.745 61.9673C204.71 61.9919 204.667 62.0047 204.624 62.0037C204.667 62.0029 204.709 61.9903 204.745 61.9673Z" fill="#E9E9E9"/>
<path d="M202.661 57.5408C202.701 57.5719 202.752 57.5907 202.806 57.5943C202.754 57.5858 202.704 57.5676 202.661 57.5408Z" fill="#E9E9E9"/>
<path d="M202.65 57.5195L202.674 57.5434C202.662 57.5315 202.65 57.5315 202.65 57.5195Z" fill="#E9E9E9"/>
<path d="M189.606 86.7204H189.582C189.512 86.717 189.446 86.6893 189.398 86.6432C189.35 86.5971 189.325 86.5363 189.328 86.4739L189.449 85.0488C189.452 84.9909 189.48 84.9362 189.527 84.8963C189.575 84.8563 189.638 84.8341 189.703 84.8345H189.74C189.81 84.8378 189.876 84.8655 189.924 84.9116C189.971 84.9577 189.997 85.0185 189.994 85.0809L189.873 86.5061C189.867 86.5649 189.836 86.6196 189.787 86.6594C189.738 86.6991 189.673 86.7209 189.606 86.7204Z" fill="#E9E9E9"/>
<path d="M193.482 86.7071C193.416 86.7103 193.35 86.6912 193.298 86.6535C193.247 86.6157 193.213 86.5622 193.204 86.5035L192.998 85.0998C192.992 85.0373 193.014 84.9753 193.059 84.9271C193.105 84.879 193.17 84.8486 193.24 84.8426H193.277C193.343 84.8394 193.409 84.8586 193.461 84.8963C193.512 84.934 193.546 84.9875 193.555 85.0462L193.761 86.4499C193.767 86.5124 193.745 86.5744 193.7 86.6226C193.654 86.6707 193.589 86.7011 193.519 86.7071H193.482Z" fill="#E9E9E9"/>
<path d="M197.152 86.044C197.097 86.0442 197.044 86.03 196.999 86.0033C196.953 85.9766 196.918 85.9385 196.897 85.894L196.401 84.5545C196.385 84.4934 196.393 84.4292 196.423 84.3726C196.454 84.3161 196.506 84.2706 196.57 84.2438C196.602 84.235 196.634 84.2313 196.667 84.2331C196.722 84.2329 196.775 84.247 196.82 84.2738C196.866 84.3005 196.901 84.3386 196.922 84.3831L197.418 85.7225C197.428 85.7465 197.432 85.772 197.43 85.7975C197.428 85.8622 197.397 85.9235 197.345 85.969C197.318 85.9929 197.285 86.0112 197.249 86.0225C197.22 86.0396 197.186 86.0472 197.152 86.044Z" fill="#E9E9E9"/>
<path d="M185.863 86.0651C185.842 86.0668 185.821 86.0631 185.802 86.0544C185.734 86.038 185.675 85.9986 185.639 85.9446C185.603 85.8905 185.592 85.8262 185.609 85.7651L186.045 84.3935C186.057 84.343 186.09 84.2981 186.136 84.2668C186.183 84.2354 186.241 84.2196 186.299 84.2221C186.324 84.2204 186.349 84.2241 186.372 84.2328C186.44 84.2492 186.499 84.2886 186.535 84.3426C186.571 84.3967 186.582 84.4611 186.565 84.5221L186.129 85.8937C186.12 85.9301 186.099 85.9634 186.069 85.9901C186.042 86.0143 186.01 86.0334 185.975 86.0463C185.939 86.0592 185.901 86.0656 185.863 86.0651Z" fill="#E9E9E9"/>
<path d="M191.459 86.783C191.389 86.785 191.32 86.7627 191.268 86.7206C191.216 86.6786 191.185 86.6202 191.181 86.558V83.3648C191.187 83.3032 191.219 83.2459 191.27 83.2042C191.322 83.1625 191.389 83.1395 191.459 83.1398C191.53 83.1377 191.598 83.1601 191.65 83.2021C191.702 83.2442 191.734 83.3026 191.738 83.3648V86.558C191.734 86.6202 191.702 86.6786 191.65 86.7206C191.598 86.7627 191.53 86.785 191.459 86.783Z" fill="#E9E9E9"/>
<path d="M199.634 83.4087C199.616 83.3815 199.605 83.3513 199.6 83.3201C199.596 83.2888 199.599 83.2571 199.61 83.2269C199.62 83.1968 199.637 83.1688 199.66 83.1448C199.683 83.1207 199.711 83.1011 199.743 83.0872C199.788 83.0665 199.838 83.0555 199.888 83.0551C199.932 83.0537 199.976 83.063 200.014 83.0819C200.053 83.1008 200.085 83.1285 200.106 83.1622L200.906 84.3945C200.924 84.4216 200.936 84.4517 200.94 84.4831C200.945 84.5144 200.942 84.5462 200.931 84.5765C200.921 84.6067 200.904 84.6348 200.881 84.6588C200.858 84.6828 200.829 84.7022 200.797 84.7159C200.752 84.7366 200.702 84.7476 200.651 84.7481C200.608 84.7494 200.564 84.7401 200.526 84.7212C200.487 84.7024 200.455 84.6746 200.433 84.6409L199.634 83.4087Z" fill="#E9E9E9"/>
<path d="M182.352 84.7818C182.309 84.7811 182.267 84.77 182.231 84.7496C182.199 84.7359 182.17 84.7165 182.147 84.6928C182.123 84.6691 182.105 84.6414 182.094 84.6115C182.083 84.5815 182.078 84.5499 182.081 84.5184C182.084 84.4869 182.093 84.4563 182.11 84.4282L182.836 83.1638C182.859 83.1244 182.894 83.0915 182.937 83.0687C182.98 83.046 183.029 83.0344 183.079 83.0352C183.122 83.0359 183.163 83.047 183.2 83.0673C183.232 83.0811 183.261 83.1004 183.284 83.1242C183.308 83.1479 183.326 83.1756 183.337 83.2055C183.348 83.2355 183.353 83.2671 183.35 83.2986C183.347 83.3301 183.337 83.3607 183.321 83.3888L182.594 84.6532C182.568 84.6902 182.533 84.7212 182.491 84.7436C182.449 84.7659 182.401 84.779 182.352 84.7818Z" fill="#E9E9E9"/>
<path d="M187.693 86.4514C187.672 86.453 187.651 86.4493 187.633 86.4407C187.562 86.4279 187.499 86.3923 187.457 86.3408C187.414 86.2893 187.395 86.2255 187.403 86.1621L188.105 83.0332C188.124 82.9787 188.163 82.9313 188.215 82.8983C188.268 82.8654 188.331 82.8488 188.396 82.851H188.432C188.503 82.8638 188.565 82.8994 188.608 82.9509C188.651 83.0024 188.67 83.0662 188.662 83.1296L187.96 86.2585C187.944 86.3112 187.909 86.3582 187.861 86.3928C187.814 86.4274 187.755 86.4479 187.693 86.4514Z" fill="#E9E9E9"/>
<path d="M194.342 83.1287C194.334 83.0984 194.333 83.0669 194.339 83.0362C194.345 83.0055 194.358 82.9763 194.377 82.9502C194.396 82.9241 194.422 82.9018 194.451 82.8846C194.48 82.8674 194.513 82.8556 194.548 82.8501C194.572 82.8501 194.584 82.8394 194.608 82.8394C194.671 82.8397 194.732 82.859 194.78 82.8941C194.829 82.9292 194.862 82.978 194.875 83.0322L195.601 86.1611C195.615 86.2221 195.6 86.2852 195.562 86.3371C195.524 86.3891 195.464 86.4258 195.396 86.4397C195.371 86.4397 195.359 86.4504 195.335 86.4504C195.288 86.4514 195.242 86.4402 195.202 86.4183C195.168 86.4046 195.138 86.3838 195.114 86.3577C195.091 86.3316 195.076 86.3009 195.069 86.2683L194.342 83.1287Z" fill="#E9E9E9"/>
<path d="M198.932 85.466C198.879 85.4662 198.827 85.4533 198.782 85.4287C198.737 85.404 198.701 85.3687 198.678 85.3267L197.285 82.38C197.263 82.3202 197.267 82.2553 197.296 82.1978C197.325 82.1404 197.377 82.0946 197.442 82.0693C197.477 82.0571 197.514 82.0498 197.551 82.0479C197.604 82.0477 197.656 82.0606 197.701 82.0852C197.746 82.1099 197.782 82.1452 197.806 82.1872L199.198 85.1339C199.223 85.1936 199.22 85.2594 199.191 85.3173C199.161 85.3753 199.108 85.4209 199.041 85.4446C199.008 85.4618 198.97 85.4693 198.932 85.466Z" fill="#E9E9E9"/>
<path d="M184.047 85.4665C184.006 85.4635 183.965 85.4563 183.926 85.4451C183.86 85.4211 183.806 85.3755 183.777 85.3176C183.747 85.2597 183.745 85.1941 183.769 85.1343L185.149 82.1876C185.172 82.1444 185.208 82.1076 185.253 82.0811C185.297 82.0546 185.35 82.0396 185.403 82.0376C185.441 82.0396 185.478 82.0468 185.512 82.059C185.579 82.0829 185.632 82.1286 185.662 82.1865C185.691 82.2444 185.694 82.31 185.67 82.3698L184.289 85.3165C184.275 85.3624 184.243 85.4023 184.198 85.4297C184.154 85.457 184.101 85.47 184.047 85.4665Z" fill="#E9E9E9"/>
<path d="M203.788 82.9036C203.712 82.8995 203.639 82.8731 203.582 82.8286L202.528 81.7571C202.506 81.7331 202.489 81.7056 202.479 81.6759C202.469 81.6463 202.465 81.6152 202.469 81.5843C202.472 81.5535 202.482 81.5235 202.499 81.4961C202.515 81.4688 202.537 81.4446 202.565 81.4249C202.615 81.3855 202.679 81.3628 202.746 81.3606C202.822 81.3647 202.895 81.3911 202.952 81.4356L204.006 82.5071C204.03 82.5301 204.049 82.5574 204.061 82.5873C204.073 82.6173 204.077 82.649 204.073 82.6806C204.07 82.7121 204.059 82.7425 204.041 82.7699C204.023 82.7973 203.999 82.821 203.969 82.8393C203.919 82.8787 203.855 82.9014 203.788 82.9036Z" fill="#E9E9E9"/>
<path d="M202.238 83.9018C202.192 83.9021 202.148 83.8924 202.107 83.8737C202.067 83.855 202.033 83.8279 202.008 83.7947L200.009 81.148C199.989 81.1216 199.975 81.0918 199.968 81.0604C199.961 81.029 199.962 80.9967 199.97 80.9656C199.978 80.9344 199.993 80.905 200.014 80.8792C200.036 80.8535 200.063 80.8319 200.094 80.8158C200.139 80.7857 200.195 80.7705 200.251 80.773C200.297 80.7727 200.342 80.7824 200.382 80.8011C200.422 80.8198 200.456 80.8469 200.482 80.8801L202.48 83.5268C202.5 83.5533 202.514 83.5831 202.52 83.6144C202.527 83.6457 202.526 83.6779 202.518 83.709C202.51 83.7401 202.495 83.7694 202.474 83.7952C202.453 83.821 202.426 83.8427 202.395 83.859C202.35 83.8891 202.294 83.9043 202.238 83.9018Z" fill="#E9E9E9"/>
<path d="M180.705 83.8787C180.649 83.8794 180.594 83.8644 180.547 83.8358C180.489 83.7996 180.448 83.7455 180.433 83.6841C180.417 83.6228 180.428 83.5584 180.463 83.5036L182.461 80.8569C182.487 80.8246 182.522 80.7981 182.562 80.7795C182.602 80.761 182.646 80.7508 182.691 80.7498C182.747 80.749 182.803 80.764 182.849 80.7926C182.907 80.8289 182.948 80.8829 182.963 80.9443C182.979 81.0057 182.968 81.07 182.933 81.1248L180.935 83.7715C180.908 83.8029 180.873 83.8288 180.833 83.8473C180.793 83.8658 180.75 83.8765 180.705 83.8787Z" fill="#E9E9E9"/>
<path d="M206.465 80.5377C206.405 80.54 206.345 80.525 206.295 80.4948L205.036 79.6269C205.008 79.6079 204.985 79.5842 204.967 79.5572C204.95 79.5302 204.938 79.5005 204.934 79.4696C204.929 79.4388 204.932 79.4075 204.941 79.3774C204.95 79.3474 204.966 79.3193 204.987 79.2947C205.01 79.2652 205.041 79.241 205.077 79.2243C205.113 79.2075 205.153 79.1985 205.193 79.1982C205.254 79.1959 205.313 79.2109 205.363 79.2411L206.622 80.109C206.65 80.128 206.674 80.1517 206.691 80.1787C206.709 80.2056 206.72 80.2354 206.724 80.2663C206.729 80.2971 206.726 80.3284 206.717 80.3584C206.708 80.3885 206.692 80.4166 206.671 80.4412C206.648 80.4713 206.618 80.4959 206.582 80.5128C206.546 80.5296 206.506 80.5382 206.465 80.5377Z" fill="#E9E9E9"/>
<path d="M176.514 80.505C176.431 80.5019 176.353 80.4712 176.296 80.4193C176.272 80.3968 176.253 80.3704 176.241 80.3415C176.228 80.3126 176.223 80.2819 176.224 80.251C176.225 80.2201 176.233 80.1898 176.247 80.1617C176.262 80.1335 176.282 80.1082 176.308 80.0871L177.531 79.1656C177.576 79.1252 177.637 79.1021 177.7 79.1013C177.783 79.1045 177.861 79.1351 177.918 79.187C177.942 79.2095 177.961 79.236 177.973 79.2649C177.986 79.2937 177.991 79.3245 177.99 79.3554C177.989 79.3862 177.981 79.4166 177.967 79.4447C177.952 79.4728 177.932 79.4981 177.906 79.5192L176.683 80.4407C176.638 80.4811 176.578 80.5042 176.514 80.505Z" fill="#E9E9E9"/>
<path d="M205.168 81.7799C205.097 81.7798 205.028 81.7569 204.974 81.7156L202.419 79.4654C202.391 79.4453 202.368 79.42 202.353 79.3912C202.338 79.3625 202.33 79.3311 202.33 79.2993C202.33 79.2675 202.338 79.2361 202.353 79.2074C202.368 79.1787 202.391 79.1533 202.419 79.1332C202.471 79.0903 202.541 79.0672 202.613 79.0689C202.684 79.0691 202.753 79.0919 202.806 79.1332L205.362 81.3834C205.387 81.4047 205.408 81.4304 205.422 81.459C205.436 81.4876 205.443 81.5184 205.443 81.5495C205.443 81.5807 205.436 81.6115 205.422 81.6401C205.408 81.6687 205.387 81.6944 205.362 81.7156C205.309 81.7586 205.239 81.7816 205.168 81.7799Z" fill="#E9E9E9"/>
<path d="M177.774 81.7157C177.703 81.7156 177.634 81.6927 177.58 81.6514C177.554 81.6302 177.534 81.6045 177.52 81.5759C177.506 81.5473 177.499 81.5165 177.499 81.4853C177.499 81.4542 177.506 81.4234 177.52 81.3948C177.534 81.3662 177.554 81.3405 177.58 81.3192L180.136 79.069C180.188 79.0261 180.258 79.003 180.329 79.0047C180.401 79.0049 180.469 79.0277 180.523 79.069C180.549 79.0903 180.569 79.116 180.583 79.1446C180.597 79.1731 180.605 79.204 180.605 79.2351C180.605 79.2663 180.597 79.2971 180.583 79.3257C180.569 79.3542 180.549 79.3799 180.523 79.4012L177.968 81.6514C177.913 81.6911 177.845 81.7137 177.774 81.7157Z" fill="#E9E9E9"/>
<path d="M207.555 79.2084C207.508 79.2094 207.461 79.1982 207.422 79.1763L204.418 77.4082C204.388 77.3914 204.362 77.3692 204.341 77.343C204.321 77.3169 204.307 77.2873 204.3 77.2561C204.293 77.225 204.294 77.1929 204.302 77.1619C204.309 77.131 204.324 77.1017 204.345 77.0761C204.372 77.0417 204.409 77.0138 204.451 76.9951C204.493 76.9764 204.54 76.9674 204.588 76.9689C204.635 76.968 204.681 76.9791 204.721 77.0011L207.724 78.7691C207.754 78.7866 207.779 78.8092 207.799 78.8354C207.818 78.8616 207.832 78.891 207.839 78.9218C207.845 78.9527 207.845 78.9844 207.838 79.0152C207.831 79.046 207.817 79.0752 207.797 79.1013C207.767 79.133 207.73 79.1589 207.689 79.1773C207.647 79.1958 207.601 79.2064 207.555 79.2084Z" fill="#E9E9E9"/>
<path d="M175.388 79.1547C175.33 79.1528 175.274 79.1349 175.227 79.1034C175.181 79.0719 175.147 79.0285 175.129 78.9791C175.112 78.9297 175.113 78.8767 175.131 78.8276C175.149 78.7784 175.184 78.7355 175.231 78.7047L178.234 76.9367C178.276 76.9083 178.327 76.8932 178.38 76.8938C178.438 76.8958 178.494 76.9137 178.541 76.9452C178.587 76.9766 178.621 77.0201 178.639 77.0695C178.656 77.1189 178.655 77.1718 178.637 77.221C178.619 77.2701 178.584 77.3131 178.537 77.3439L175.534 79.1119C175.514 79.1274 175.491 79.1393 175.466 79.1467C175.441 79.154 175.415 79.1568 175.388 79.1547Z" fill="#E9E9E9"/>
<path d="M206.996 77.0961C206.964 77.0829 206.934 77.0639 206.91 77.0402C206.886 77.0166 206.868 76.9888 206.857 76.9587C206.845 76.9285 206.841 76.8966 206.844 76.8649C206.847 76.8333 206.858 76.8025 206.875 76.7746C206.898 76.7353 206.933 76.7023 206.975 76.6796C207.018 76.6569 207.068 76.6452 207.117 76.646C207.16 76.6467 207.202 76.6578 207.239 76.6782L208.668 77.3211C208.723 77.3446 208.767 77.384 208.793 77.4327C208.819 77.4815 208.826 77.5367 208.812 77.5892C208.798 77.6418 208.764 77.6884 208.715 77.7215C208.667 77.7546 208.608 77.7721 208.547 77.7712C208.504 77.7705 208.462 77.7594 208.425 77.739L206.996 77.0961Z" fill="#E9E9E9"/>
<path d="M174.153 77.4825C174.15 77.442 174.16 77.4016 174.181 77.3657C174.202 77.3297 174.235 77.2997 174.274 77.2789L175.667 76.5717C175.703 76.5514 175.745 76.5402 175.788 76.5396C175.836 76.539 175.884 76.5495 175.927 76.5702C175.969 76.5909 176.005 76.6209 176.03 76.6574C176.066 76.7102 176.078 76.7734 176.062 76.8335C176.046 76.8936 176.004 76.9458 175.945 76.9789L174.553 77.6861C174.516 77.7065 174.474 77.7176 174.431 77.7183H174.407C174.361 77.7175 174.315 77.7063 174.275 77.6857C174.235 77.6651 174.201 77.6357 174.177 77.6004C174.164 77.562 174.156 77.5225 174.153 77.4825Z" fill="#E9E9E9"/>
<path d="M209.322 76.272C209.289 76.2738 209.256 76.2701 209.225 76.2613L205.895 75.029C205.831 75.0002 205.781 74.951 205.757 74.8914C205.732 74.8318 205.734 74.7661 205.761 74.7076C205.781 74.6622 205.816 74.6234 205.861 74.5965C205.907 74.5696 205.961 74.556 206.016 74.5576C206.048 74.5558 206.081 74.5594 206.113 74.5683L209.443 75.7898C209.499 75.8099 209.545 75.8466 209.574 75.8935C209.602 75.9404 209.612 75.9946 209.6 76.047C209.6 76.0684 209.588 76.0899 209.588 76.1113C209.566 76.158 209.529 76.1981 209.482 76.2266C209.435 76.2552 209.379 76.2709 209.322 76.272Z" fill="#E9E9E9"/>
<path d="M173.366 75.9494C173.363 75.9022 173.377 75.8554 173.405 75.8152C173.433 75.775 173.475 75.7433 173.524 75.7244L176.854 74.5028C176.885 74.494 176.918 74.4904 176.951 74.4921C177.005 74.4919 177.059 74.5061 177.104 74.5328C177.149 74.5595 177.184 74.5976 177.205 74.6421C177.23 74.701 177.23 74.7657 177.206 74.8247C177.182 74.8837 177.134 74.933 177.072 74.9636L173.741 76.1852C173.71 76.194 173.677 76.1976 173.645 76.1959C173.59 76.1961 173.537 76.1819 173.492 76.1552C173.446 76.1285 173.411 76.0904 173.39 76.0459C173.371 76.0168 173.362 75.983 173.366 75.9494Z" fill="#E9E9E9"/>
<path d="M210.013 74.6759C209.988 74.6776 209.963 74.6739 209.94 74.6652L208.39 74.2797C208.328 74.2647 208.273 74.2303 208.237 74.1829C208.2 74.1355 208.184 74.0781 208.192 74.0211C208.199 73.9642 208.229 73.9114 208.277 73.8724C208.324 73.8334 208.386 73.8107 208.451 73.8085C208.476 73.8068 208.5 73.8105 208.523 73.8192L210.074 74.2047C210.115 74.2135 210.152 74.232 210.183 74.2583C210.218 74.2879 210.243 74.3256 210.256 74.3671C210.269 74.4086 210.269 74.4525 210.255 74.4939C210.244 74.5439 210.214 74.589 210.17 74.622C210.126 74.6551 210.071 74.674 210.013 74.6759Z" fill="#E9E9E9"/>
<path d="M172.989 74.6341C172.931 74.6322 172.874 74.6148 172.827 74.5843C172.779 74.5538 172.743 74.5114 172.723 74.4627C172.711 74.4324 172.705 74.4004 172.707 74.3683C172.709 74.3362 172.718 74.3048 172.734 74.2759C172.75 74.247 172.772 74.2211 172.799 74.1999C172.826 74.1786 172.858 74.1623 172.893 74.1519L174.406 73.7126C174.431 73.7126 174.455 73.7019 174.479 73.7019C174.538 73.7021 174.596 73.7174 174.645 73.7459C174.695 73.7744 174.734 73.815 174.758 73.8626C174.77 73.8929 174.775 73.925 174.773 73.957C174.771 73.9891 174.762 74.0205 174.746 74.0494C174.731 74.0783 174.708 74.1042 174.681 74.1255C174.654 74.1467 174.622 74.163 174.588 74.1734L173.074 74.6127C173.063 74.6217 173.049 74.6282 173.035 74.632C173.02 74.6357 173.004 74.6364 172.989 74.6341Z" fill="#E9E9E9"/>
<path d="M210.425 73.0775H210.389L206.853 72.456C206.784 72.4389 206.725 72.3999 206.687 72.3464C206.649 72.293 206.635 72.2289 206.647 72.1667C206.659 72.1093 206.694 72.0575 206.744 72.0203C206.795 71.9831 206.859 71.9629 206.925 71.9631H206.962L210.498 72.5846C210.568 72.5999 210.629 72.6386 210.667 72.6926C210.705 72.7465 210.719 72.8115 210.704 72.8739C210.69 72.9305 210.655 72.9813 210.604 73.0182C210.554 73.0551 210.491 73.076 210.425 73.0775Z" fill="#E9E9E9"/>
<path d="M172.397 72.5091C172.421 72.4984 172.457 72.4877 172.482 72.477L176.018 71.8662C176.03 71.8662 176.054 71.8555 176.066 71.8555C176.129 71.8581 176.188 71.8798 176.235 71.917C176.281 71.9541 176.312 72.0043 176.321 72.0591C176.335 72.1215 176.322 72.1865 176.284 72.2404C176.245 72.2944 176.185 72.3331 176.115 72.3484L172.579 72.9591C172.566 72.9591 172.542 72.9699 172.53 72.9699C172.468 72.9672 172.408 72.9455 172.362 72.9084C172.315 72.8712 172.285 72.821 172.276 72.7663C172.276 72.7448 172.264 72.7341 172.264 72.7127C172.263 72.6713 172.275 72.6305 172.299 72.5946C172.322 72.5588 172.356 72.5292 172.397 72.5091Z" fill="#E9E9E9"/>
<path d="M210.715 71.418L209.105 71.3109C209.037 71.2993 208.976 71.2674 208.932 71.2206C208.887 71.1737 208.863 71.1149 208.862 71.0539C208.866 70.9916 208.897 70.9331 208.949 70.891C209.002 70.849 209.07 70.8267 209.141 70.829L210.752 70.9361C210.822 70.9426 210.887 70.9731 210.932 71.0211C210.977 71.0691 210.999 71.1308 210.994 71.1931C210.984 71.2534 210.951 71.3089 210.9 71.35C210.85 71.391 210.784 71.4151 210.715 71.418Z" fill="#E9E9E9"/>
<path d="M172.264 71.3427C172.197 71.3417 172.134 71.3195 172.085 71.28C172.036 71.2406 172.005 71.1867 171.997 71.1285C171.988 71.0649 172.007 71.0007 172.05 70.9489C172.093 70.8972 172.156 70.8618 172.227 70.8501L173.814 70.6787H173.838C173.904 70.6797 173.968 70.7019 174.017 70.7413C174.066 70.7808 174.097 70.8346 174.105 70.8929C174.114 70.9565 174.095 71.0207 174.052 71.0724C174.009 71.1242 173.946 71.1595 173.874 71.1713L172.288 71.3427C172.288 71.332 172.276 71.3427 172.264 71.3427Z" fill="#E9E9E9"/>
<path d="M207.202 69.7468C207.133 69.7411 207.069 69.7126 207.022 69.6671C206.975 69.6215 206.949 69.5621 206.949 69.5005C206.949 69.4388 206.975 69.3794 207.022 69.3339C207.069 69.2883 207.133 69.2599 207.202 69.2542H210.812C210.881 69.2599 210.945 69.2883 210.992 69.3339C211.039 69.3794 211.065 69.4388 211.065 69.5005C211.065 69.5621 211.039 69.6215 210.992 69.6671C210.945 69.7126 210.881 69.7411 210.812 69.7468H207.202Z" fill="#E9E9E9"/>
<path d="M172.179 69.6591C172.11 69.6534 172.045 69.625 171.998 69.5794C171.951 69.5339 171.925 69.4744 171.925 69.4128C171.925 69.3512 171.951 69.2918 171.998 69.2462C172.045 69.2007 172.11 69.1722 172.179 69.1665H175.788C175.857 69.1722 175.922 69.2007 175.969 69.2462C176.016 69.2918 176.042 69.3512 176.042 69.4128C176.042 69.4744 176.016 69.5339 175.969 69.5794C175.922 69.625 175.857 69.6534 175.788 69.6591H172.179Z" fill="#E9E9E9"/>
<path d="M209.153 68.2355C209.087 68.2345 209.023 68.2123 208.974 68.1728C208.925 68.1334 208.894 68.0795 208.887 68.0213C208.878 67.9577 208.897 67.8935 208.94 67.8418C208.982 67.79 209.046 67.7547 209.117 67.7429L210.704 67.5715H210.728C210.794 67.5725 210.858 67.5947 210.907 67.6342C210.956 67.6736 210.987 67.7275 210.994 67.7857C211.003 67.8493 210.984 67.9135 210.942 67.9652C210.899 68.017 210.835 68.0524 210.764 68.0641L209.178 68.2355H209.153Z" fill="#E9E9E9"/>
<path d="M173.851 68.0949L172.24 67.9878C172.171 67.9796 172.108 67.9486 172.064 67.9011C172.02 67.8536 171.998 67.7931 172.003 67.7318C172.008 67.6705 172.038 67.6131 172.089 67.5711C172.14 67.5292 172.207 67.5059 172.276 67.5059L173.887 67.6129C173.955 67.6245 174.016 67.6565 174.06 67.7033C174.104 67.7501 174.128 67.809 174.129 67.87C174.122 67.9311 174.089 67.9876 174.038 68.0291C173.987 68.0705 173.92 68.0939 173.851 68.0949Z" fill="#E9E9E9"/>
<path d="M206.911 67.0468C206.849 67.0441 206.789 67.0224 206.743 66.9853C206.696 66.9481 206.666 66.8979 206.657 66.8432C206.642 66.7807 206.655 66.7157 206.694 66.6618C206.732 66.6078 206.793 66.5692 206.863 66.5539L210.399 65.9431C210.411 65.9431 210.435 65.9324 210.447 65.9324C210.51 65.935 210.569 65.9567 210.616 65.9939C210.662 66.031 210.693 66.0812 210.702 66.136C210.702 66.1574 210.714 66.1681 210.714 66.1895C210.719 66.2315 210.708 66.2738 210.684 66.3103C210.66 66.3469 210.624 66.3758 210.581 66.3931C210.556 66.4038 210.52 66.4146 210.496 66.4253L206.959 67.036C206.947 67.0468 206.935 67.0468 206.911 67.0468Z" fill="#E9E9E9"/>
<path d="M176.078 66.9489H176.042L172.506 66.3274C172.436 66.3121 172.375 66.2734 172.337 66.2194C172.298 66.1655 172.285 66.1005 172.3 66.0381C172.312 65.9807 172.346 65.9289 172.397 65.8917C172.448 65.8545 172.512 65.8342 172.578 65.8345H172.615L176.151 66.456C176.22 66.4731 176.279 66.5121 176.317 66.5656C176.355 66.619 176.369 66.6831 176.357 66.7453C176.343 66.8019 176.308 66.8527 176.257 66.8896C176.207 66.9265 176.144 66.9473 176.078 66.9489Z" fill="#E9E9E9"/>
<path d="M209.916 64.2929C209.939 64.2841 209.963 64.2804 209.988 64.2821H210C210.059 64.2841 210.116 64.3014 210.163 64.332C210.211 64.3625 210.247 64.4048 210.267 64.4536C210.279 64.4838 210.284 64.5159 210.282 64.548C210.281 64.58 210.271 64.6114 210.256 64.6404C210.24 64.6693 210.218 64.6951 210.191 64.7164C210.163 64.7377 210.132 64.754 210.097 64.7643L208.583 65.2036C208.559 65.2036 208.535 65.2144 208.511 65.2144C208.452 65.2141 208.394 65.1989 208.345 65.1703C208.295 65.1418 208.256 65.1013 208.232 65.0536C208.22 65.0234 208.215 64.9913 208.217 64.9592C208.219 64.9272 208.228 64.8958 208.244 64.8669C208.259 64.8379 208.281 64.8121 208.309 64.7908C208.336 64.7695 208.367 64.7532 208.402 64.7429L209.916 64.2929Z" fill="#E9E9E9"/>
<path d="M172.809 64.6461C172.774 64.6164 172.749 64.5788 172.736 64.5373C172.723 64.4957 172.723 64.4519 172.737 64.4105C172.751 64.3599 172.784 64.3148 172.83 64.2819C172.876 64.2491 172.932 64.2303 172.991 64.2284C173.016 64.2267 173.041 64.2304 173.064 64.2391L174.614 64.6247C174.677 64.6397 174.731 64.674 174.767 64.7215C174.804 64.7689 174.82 64.8263 174.812 64.8833C174.805 64.9402 174.775 64.993 174.727 65.032C174.68 65.071 174.618 65.0936 174.553 65.0959C174.529 65.0976 174.504 65.0939 174.481 65.0852L172.931 64.6996C172.907 64.7011 172.883 64.6969 172.862 64.6875C172.84 64.6781 172.822 64.6638 172.809 64.6461Z" fill="#E9E9E9"/>
<path d="M206.041 64.4324C205.986 64.4326 205.933 64.4185 205.888 64.3918C205.842 64.365 205.807 64.327 205.786 64.2824C205.762 64.2236 205.761 64.1588 205.786 64.0998C205.81 64.0408 205.858 63.9916 205.92 63.961L209.25 62.7394C209.281 62.7306 209.314 62.727 209.347 62.7287C209.402 62.7285 209.455 62.7426 209.5 62.7694C209.545 62.7961 209.581 62.8342 209.601 62.8787C209.615 62.9095 209.623 62.9421 209.626 62.9751C209.628 63.0224 209.615 63.0692 209.587 63.1094C209.558 63.1496 209.517 63.1813 209.468 63.2002L206.138 64.4217C206.101 64.4217 206.077 64.4324 206.041 64.4324Z" fill="#E9E9E9"/>
<path d="M173.414 62.7925C173.434 62.7472 173.469 62.7083 173.514 62.6814C173.56 62.6545 173.614 62.6409 173.669 62.6425C173.701 62.6408 173.734 62.6444 173.765 62.6532L177.096 63.8748C177.16 63.9036 177.209 63.9528 177.234 64.0124C177.258 64.072 177.257 64.1377 177.229 64.1963C177.21 64.2416 177.175 64.2804 177.129 64.3073C177.084 64.3342 177.03 64.3479 176.975 64.3463C176.942 64.348 176.909 64.3444 176.878 64.3356L173.547 63.114C173.492 63.0939 173.445 63.0572 173.417 63.0103C173.388 62.9634 173.379 62.9092 173.39 62.8568C173.402 62.8354 173.402 62.814 173.414 62.7925Z" fill="#E9E9E9"/>
<path d="M208.56 61.1956C208.606 61.195 208.653 61.2057 208.693 61.2264C208.734 61.2472 208.767 61.2772 208.79 61.3134C208.812 61.3499 208.824 61.3901 208.826 61.4313C208.829 61.4718 208.819 61.5123 208.798 61.5482C208.777 61.5841 208.744 61.6141 208.705 61.6349L207.312 62.3421C207.276 62.3625 207.234 62.3736 207.191 62.3743C207.143 62.3749 207.095 62.3643 207.052 62.3437C207.01 62.323 206.974 62.2929 206.949 62.2564C206.913 62.2037 206.901 62.1405 206.917 62.0804C206.933 62.0202 206.975 61.968 207.034 61.9349L208.426 61.2277C208.467 61.2072 208.513 61.1961 208.56 61.1956Z" fill="#E9E9E9"/>
<path d="M175.873 62.2777C175.83 62.2771 175.788 62.266 175.752 62.2456L174.323 61.6027C174.268 61.5792 174.224 61.5398 174.197 61.4911C174.171 61.4423 174.165 61.3871 174.179 61.3345C174.193 61.282 174.227 61.2353 174.275 61.2023C174.323 61.1692 174.383 61.1517 174.444 61.1526C174.487 61.1533 174.529 61.1644 174.565 61.1848L175.994 61.8277C176.027 61.8409 176.056 61.8599 176.08 61.8835C176.104 61.9072 176.122 61.9349 176.134 61.9651C176.145 61.9953 176.149 62.0272 176.146 62.0588C176.143 62.0905 176.132 62.1212 176.115 62.1492C176.09 62.187 176.055 62.2187 176.013 62.2412C175.97 62.2637 175.922 62.2763 175.873 62.2777Z" fill="#E9E9E9"/>
<path d="M204.612 62.0302C204.554 62.0283 204.498 62.0103 204.451 61.9789C204.405 61.9474 204.371 61.904 204.353 61.8546C204.336 61.8052 204.337 61.7522 204.355 61.7031C204.373 61.6539 204.408 61.611 204.455 61.5802L207.458 59.8122C207.5 59.7838 207.551 59.7687 207.604 59.7693C207.662 59.7713 207.718 59.7892 207.765 59.8207C207.811 59.8521 207.845 59.8956 207.863 59.945C207.88 59.9944 207.879 60.0473 207.861 60.0965C207.843 60.1456 207.808 60.1885 207.761 60.2194L204.758 61.9874C204.714 62.0112 204.664 62.0258 204.612 62.0302Z" fill="#E9E9E9"/>
<path d="M178.404 61.9562C178.357 61.9572 178.311 61.946 178.271 61.9241L175.28 60.156C175.25 60.1385 175.225 60.116 175.205 60.0897C175.186 60.0635 175.172 60.0342 175.166 60.0033C175.159 59.9724 175.159 59.9407 175.166 59.9099C175.173 59.8791 175.187 59.8499 175.207 59.8239C175.234 59.7895 175.27 59.7616 175.313 59.7429C175.355 59.7242 175.402 59.7152 175.449 59.7167C175.496 59.7158 175.543 59.7269 175.583 59.7489L178.574 61.5169C178.604 61.5337 178.63 61.5559 178.651 61.5821C178.671 61.6083 178.685 61.6379 178.692 61.669C178.699 61.7002 178.698 61.7322 178.69 61.7632C178.683 61.7942 178.668 61.8234 178.647 61.8491C178.621 61.8843 178.584 61.9128 178.542 61.9316C178.499 61.9504 178.452 61.9589 178.404 61.9562Z" fill="#E9E9E9"/>
<path d="M205.277 59.8122C205.195 59.809 205.117 59.7784 205.059 59.7264C205.035 59.7039 205.017 59.6775 205.004 59.6486C204.992 59.6197 204.986 59.589 204.987 59.5581C204.989 59.5273 204.997 59.4969 205.011 59.4688C205.025 59.4407 205.046 59.4153 205.071 59.3943L206.295 58.4727C206.339 58.4324 206.4 58.4093 206.464 58.4084C206.546 58.4116 206.624 58.4422 206.682 58.4942C206.706 58.5167 206.725 58.5431 206.737 58.572C206.749 58.6009 206.755 58.6316 206.754 58.6625C206.753 58.6933 206.745 58.7237 206.73 58.7518C206.716 58.7799 206.696 58.8053 206.67 58.8263L205.447 59.7479C205.402 59.7882 205.341 59.8114 205.277 59.8122Z" fill="#E9E9E9"/>
<path d="M177.797 59.7269C177.737 59.7292 177.678 59.7142 177.628 59.684L176.368 58.8161C176.341 58.7971 176.317 58.7734 176.3 58.7464C176.282 58.7195 176.271 58.6897 176.266 58.6588C176.262 58.628 176.264 58.5967 176.273 58.5667C176.283 58.5366 176.298 58.5085 176.32 58.4839C176.343 58.4544 176.374 58.4302 176.41 58.4135C176.445 58.3967 176.485 58.3878 176.526 58.3874C176.586 58.3851 176.646 58.4001 176.695 58.4303L177.955 59.2982C177.983 59.3172 178.006 59.3409 178.024 59.3679C178.041 59.3949 178.052 59.4246 178.057 59.4555C178.061 59.4863 178.059 59.5176 178.05 59.5477C178.041 59.5777 178.025 59.6058 178.003 59.6304C177.981 59.6605 177.95 59.6851 177.914 59.702C177.878 59.7188 177.838 59.7274 177.797 59.7269Z" fill="#E9E9E9"/>
<path d="M180.377 59.8556C180.306 59.8554 180.237 59.8326 180.183 59.7913L177.628 57.5411C177.602 57.5198 177.582 57.4941 177.568 57.4655C177.554 57.437 177.546 57.4062 177.546 57.375C177.546 57.3438 177.554 57.313 177.568 57.2845C177.582 57.2559 177.602 57.2302 177.628 57.2089C177.681 57.166 177.75 57.1429 177.822 57.1446C177.893 57.1448 177.962 57.1676 178.016 57.2089L180.571 59.4591C180.599 59.4792 180.621 59.5046 180.637 59.5333C180.652 59.562 180.66 59.5934 180.66 59.6252C180.66 59.657 180.652 59.6884 180.637 59.7171C180.621 59.7459 180.599 59.7712 180.571 59.7913C180.517 59.8326 180.448 59.8554 180.377 59.8556Z" fill="#E9E9E9"/>
<path d="M202.831 57.6161C202.764 57.6139 202.699 57.5911 202.649 57.5518C202.621 57.5328 202.598 57.5091 202.58 57.4822C202.563 57.4552 202.552 57.4254 202.547 57.3946C202.543 57.3637 202.545 57.3324 202.554 57.3024C202.563 57.2724 202.579 57.2442 202.601 57.2196L203.606 56.1052C203.629 56.0762 203.66 56.053 203.696 56.038C203.732 56.0229 203.772 56.0166 203.812 56.0195C203.879 56.0217 203.943 56.0444 203.993 56.0838C204.021 56.1028 204.045 56.1264 204.062 56.1534C204.08 56.1804 204.091 56.2102 204.095 56.241C204.1 56.2718 204.097 56.3032 204.088 56.3332C204.079 56.3632 204.063 56.3913 204.042 56.416L203.037 57.5304C202.984 57.5819 202.91 57.6127 202.831 57.6161Z" fill="#E9E9E9"/>
<path d="M180.245 57.5511C180.169 57.5469 180.096 57.5206 180.039 57.4761L178.985 56.4045C178.961 56.3816 178.942 56.3542 178.93 56.3243C178.918 56.2944 178.914 56.2626 178.918 56.2311C178.921 56.1996 178.932 56.1691 178.95 56.1417C178.968 56.1143 178.992 56.0907 179.022 56.0723C179.072 56.033 179.136 56.0103 179.203 56.0081C179.279 56.0122 179.352 56.0386 179.409 56.0831L180.463 57.1546C180.485 57.1785 180.502 57.2061 180.512 57.2357C180.522 57.2654 180.526 57.2965 180.522 57.3273C180.519 57.3582 180.509 57.3882 180.492 57.4155C180.476 57.4429 180.454 57.4671 180.426 57.4868C180.403 57.5081 180.375 57.5248 180.343 57.5359C180.312 57.5469 180.278 57.5521 180.245 57.5511Z" fill="#E9E9E9"/>
<path d="M200.299 58.1624C200.243 58.1631 200.188 58.1481 200.142 58.1195C200.084 58.0832 200.043 58.0292 200.027 57.9678C200.011 57.9065 200.022 57.8421 200.057 57.7873L202.055 55.1406C202.079 55.1086 202.111 55.0821 202.149 55.0635C202.187 55.0448 202.23 55.0345 202.273 55.0335C202.329 55.0327 202.385 55.0477 202.431 55.0763C202.489 55.1126 202.53 55.1666 202.545 55.228C202.561 55.2894 202.55 55.3537 202.515 55.4085L200.517 58.0552C200.495 58.0889 200.463 58.1166 200.425 58.1355C200.387 58.1544 200.343 58.1637 200.299 58.1624Z" fill="#E9E9E9"/>
<path d="M182.74 58.1311C182.694 58.1313 182.649 58.1217 182.609 58.103C182.569 58.0843 182.535 58.0571 182.509 58.0239L180.511 55.3772C180.491 55.3508 180.477 55.3209 180.471 55.2896C180.464 55.2583 180.465 55.2261 180.473 55.195C180.481 55.164 180.496 55.1346 180.517 55.1088C180.538 55.0831 180.565 55.0614 180.596 55.0451C180.641 55.0149 180.697 54.9998 180.753 55.0022C180.799 55.002 180.843 55.0116 180.884 55.0303C180.924 55.049 180.958 55.0762 180.983 55.1094L182.982 57.756C183.002 57.7824 183.016 57.8122 183.023 57.8436C183.03 57.875 183.029 57.9073 183.021 57.9385C183.013 57.9696 182.998 57.999 182.977 58.0248C182.955 58.0505 182.928 58.0721 182.897 58.0882C182.852 58.1183 182.796 58.1335 182.74 58.1311Z" fill="#E9E9E9"/>
<path d="M182.352 54.1661C182.396 54.1648 182.44 54.1741 182.478 54.193C182.517 54.2119 182.548 54.2396 182.57 54.2733L183.37 55.5055C183.388 55.5327 183.399 55.5629 183.403 55.5941C183.408 55.6254 183.404 55.6571 183.394 55.6873C183.384 55.7174 183.367 55.7454 183.344 55.7694C183.321 55.7935 183.293 55.8131 183.261 55.827C183.216 55.8477 183.166 55.8587 183.115 55.8592C183.071 55.8605 183.028 55.8512 182.99 55.8323C182.951 55.8134 182.919 55.7857 182.897 55.752L182.098 54.5197C182.08 54.4926 182.068 54.4625 182.063 54.4311C182.059 54.3998 182.062 54.368 182.072 54.3377C182.083 54.3075 182.1 54.2795 182.123 54.2554C182.146 54.2314 182.175 54.212 182.207 54.1983C182.252 54.1776 182.302 54.1666 182.352 54.1661Z" fill="#E9E9E9"/>
<path d="M199.925 55.8914C199.882 55.8907 199.84 55.8796 199.804 55.8593C199.772 55.8455 199.743 55.8262 199.719 55.8024C199.696 55.7787 199.678 55.7511 199.667 55.7211C199.655 55.6911 199.651 55.6595 199.654 55.628C199.656 55.5965 199.666 55.5659 199.683 55.5378L200.409 54.2734C200.432 54.234 200.467 54.2011 200.509 54.1784C200.552 54.1556 200.601 54.144 200.651 54.1448C200.694 54.1455 200.736 54.1566 200.773 54.177C200.805 54.1907 200.833 54.2101 200.857 54.2338C200.88 54.2575 200.898 54.2852 200.91 54.3151C200.921 54.3451 200.925 54.3767 200.923 54.4082C200.92 54.4397 200.91 54.4704 200.894 54.4984L200.167 55.7628C200.142 55.8007 200.107 55.8324 200.065 55.8549C200.022 55.8774 199.974 55.89 199.925 55.8914Z" fill="#E9E9E9"/>
<path d="M185.453 56.855C185.4 56.8552 185.348 56.8422 185.303 56.8176C185.258 56.793 185.222 56.7576 185.198 56.7157L183.805 53.7689C183.781 53.7092 183.784 53.6434 183.813 53.5855C183.843 53.5275 183.896 53.4819 183.963 53.4582C183.998 53.446 184.035 53.4388 184.072 53.4368C184.125 53.4366 184.177 53.4495 184.222 53.4742C184.267 53.4988 184.303 53.5341 184.326 53.5761L185.719 56.5228C185.741 56.5826 185.737 56.6476 185.708 56.705C185.679 56.7624 185.627 56.8082 185.562 56.8335C185.527 56.8457 185.49 56.853 185.453 56.855Z" fill="#E9E9E9"/>
<path d="M197.587 56.8668C197.55 56.8648 197.513 56.8576 197.478 56.8454C197.412 56.8214 197.358 56.7758 197.329 56.7179C197.3 56.66 197.297 56.5944 197.321 56.5346L198.701 53.5879C198.721 53.5456 198.755 53.5096 198.798 53.4847C198.841 53.4598 198.892 53.4472 198.944 53.4486C198.985 53.4516 199.025 53.4588 199.065 53.47C199.131 53.4939 199.185 53.5396 199.214 53.5975C199.243 53.6553 199.246 53.721 199.222 53.7808L197.842 56.7275C197.814 56.7662 197.776 56.7988 197.732 56.8229C197.688 56.847 197.639 56.862 197.587 56.8668Z" fill="#E9E9E9"/>
<path d="M185.646 52.9346C185.674 52.9107 185.707 52.8924 185.743 52.881C185.775 52.8722 185.807 52.8686 185.84 52.8703C185.895 52.8701 185.948 52.8842 185.993 52.911C186.038 52.9377 186.074 52.9758 186.094 53.0203L186.591 54.3597C186.607 54.4209 186.599 54.4851 186.568 54.5416C186.538 54.5982 186.486 54.6437 186.421 54.6705C186.39 54.6793 186.357 54.6829 186.325 54.6812C186.27 54.6814 186.217 54.6672 186.172 54.6405C186.126 54.6138 186.091 54.5757 186.07 54.5312L185.574 53.1918C185.564 53.1678 185.56 53.1422 185.562 53.1167C185.557 53.0825 185.563 53.0479 185.577 53.016C185.592 52.9841 185.616 52.9561 185.646 52.9346Z" fill="#E9E9E9"/>
<path d="M196.934 52.9238C196.989 52.8757 197.063 52.8487 197.14 52.8488C197.161 52.8471 197.182 52.8508 197.2 52.8595C197.269 52.8759 197.327 52.9153 197.364 52.9693C197.4 53.0234 197.411 53.0878 197.394 53.1488L196.958 54.5204C196.945 54.5709 196.913 54.6158 196.866 54.6471C196.82 54.6785 196.762 54.6943 196.704 54.6918C196.679 54.6935 196.654 54.6898 196.631 54.6811C196.563 54.6647 196.504 54.6253 196.468 54.5713C196.432 54.5172 196.421 54.4528 196.437 54.3918L196.873 53.0202C196.873 53.0009 196.879 52.9819 196.889 52.965C196.9 52.9481 196.915 52.9339 196.934 52.9238Z" fill="#E9E9E9"/>
<path d="M188.385 56.062C188.322 56.0617 188.261 56.0424 188.213 56.0073C188.164 55.9722 188.131 55.9234 188.118 55.8692L187.391 52.7403C187.378 52.6793 187.393 52.6162 187.431 52.5643C187.469 52.5123 187.529 52.4756 187.597 52.4617C187.622 52.4617 187.634 52.451 187.658 52.451C187.705 52.45 187.751 52.4612 187.791 52.4831C187.825 52.4968 187.855 52.5176 187.878 52.5437C187.902 52.5698 187.917 52.6005 187.924 52.6331L188.651 55.762C188.659 55.7923 188.66 55.8238 188.654 55.8545C188.648 55.8851 188.635 55.9144 188.616 55.9405C188.596 55.9666 188.571 55.9889 188.542 56.0061C188.513 56.0233 188.48 56.0351 188.445 56.0406C188.437 56.0478 188.428 56.0534 188.417 56.0571C188.407 56.0608 188.396 56.0625 188.385 56.062Z" fill="#E9E9E9"/>
<path d="M194.596 56.0619H194.559C194.489 56.0492 194.426 56.0136 194.383 55.9621C194.341 55.9105 194.322 55.8468 194.329 55.7833L195.032 52.6544C195.045 52.6002 195.078 52.5514 195.126 52.5163C195.175 52.4812 195.236 52.4619 195.298 52.4616C195.319 52.4599 195.34 52.4636 195.359 52.4723C195.429 52.485 195.492 52.5206 195.535 52.5721C195.577 52.6237 195.597 52.6874 195.589 52.7509L194.886 55.8798C194.866 55.9335 194.827 55.9801 194.775 56.0129C194.722 56.0456 194.66 56.0628 194.596 56.0619Z" fill="#E9E9E9"/>
<path d="M189.715 54.0699C189.648 54.0731 189.582 54.054 189.531 54.0163C189.479 53.9785 189.445 53.925 189.436 53.8663L189.23 52.4626C189.224 52.4001 189.246 52.3381 189.292 52.2899C189.337 52.2418 189.402 52.2114 189.473 52.2054H189.509C189.576 52.2022 189.642 52.2213 189.693 52.2591C189.745 52.2968 189.779 52.3503 189.788 52.409L189.993 53.8127C190 53.8752 189.978 53.9372 189.932 53.9854C189.887 54.0335 189.822 54.0639 189.751 54.0699H189.715Z" fill="#E9E9E9"/>
<path d="M193.288 54.0697H193.252C193.181 54.0664 193.115 54.0387 193.067 53.9926C193.02 53.9465 192.995 53.8857 192.997 53.8233L193.118 52.3982C193.124 52.3393 193.155 52.2846 193.204 52.2449C193.254 52.2051 193.318 52.1834 193.385 52.1838H193.409C193.48 52.1872 193.546 52.2149 193.593 52.261C193.641 52.3071 193.666 52.3679 193.663 52.4303L193.542 53.8554C193.542 53.8845 193.536 53.9133 193.523 53.94C193.51 53.9667 193.491 53.9908 193.467 54.0109C193.443 54.0309 193.415 54.0465 193.384 54.0566C193.354 54.0667 193.321 54.0712 193.288 54.0697Z" fill="#E9E9E9"/>
<path d="M191.531 55.7838C191.46 55.7859 191.392 55.7635 191.339 55.7215C191.287 55.6794 191.256 55.621 191.252 55.5588V52.3656C191.258 52.3042 191.291 52.2472 191.342 52.2057C191.394 52.1641 191.461 52.1411 191.531 52.1411C191.6 52.1411 191.667 52.1641 191.719 52.2057C191.77 52.2472 191.803 52.3042 191.809 52.3656V55.5588C191.801 55.6197 191.769 55.6761 191.717 55.7175C191.666 55.7588 191.6 55.7824 191.531 55.7838Z" fill="#E9E9E9"/>
<path d="M205.462 57.1016L189.173 67.3454L194.005 71.5994L205.462 57.1016Z" fill="#FF3636"/>
<path d="M189.186 67.3123L191.62 69.4446L205.463 57.1006L189.186 67.3123Z" fill="#FF3636"/>
<path d="M189.184 67.313L194.016 71.567L177.715 81.8108L189.184 67.313Z" fill="#EEEEEE"/>
<path d="M177.715 81.8108L191.618 69.4453L189.184 67.313L177.715 81.8108Z" fill="#EEEEEE"/>
<g clip-path="url(#clip1_2066_36576)">
<path d="M90.4677 -21.2422C88.7636 -9.14899 78.1477 -0.646786 66.7564 -2.25196C55.3652 -3.85714 47.5122 -14.9618 49.2162 -27.055C50.9203 -39.1482 61.5362 -47.6504 72.9275 -46.0452C84.3187 -44.4401 92.1718 -33.3353 90.4677 -21.2422Z" fill="#EDB235"/>
<path d="M72.5113 32.6907C84.3083 31.7336 105.852 20.1255 107.971 -5.89216" stroke="#D89B19" stroke-opacity="0.6" strokeWidth="5.64049"/>
<path d="M240.311 71.5513L265.6 68.8091L272.111 92.977L247.373 129.892C247.152 130.114 246.93 130.115 246.708 130.116L215.797 109.353C215.575 109.132 215.574 108.91 215.573 108.688L240.311 71.5513ZM262.959 75.9185C263.401 75.2514 263.176 74.1426 262.509 73.7008C261.842 73.2591 260.733 73.4845 260.291 74.1516C259.849 74.8187 260.075 75.9275 260.742 76.3693C261.409 76.811 262.518 76.8075 262.959 75.9185Z" fill="#3D68FB"/>
<path fillRule="evenodd" clip-rule="evenodd" d="M250.67 92.2339C251.088 92.6108 251.122 93.2558 250.745 93.6745L238.977 106.749C238.6 107.167 237.955 107.201 237.537 106.824C237.118 106.447 237.084 105.802 237.461 105.384L249.229 92.3096C249.606 91.8909 250.251 91.857 250.67 92.2339Z" fill="white"/>
<path fillRule="evenodd" clip-rule="evenodd" d="M232.925 95.0304C232.335 92.6168 233.873 90.3172 236.213 89.7446C238.626 89.1539 240.926 90.6922 241.498 93.0318C242.089 95.4454 240.551 97.7451 238.211 98.3176C235.797 98.9083 233.498 97.3701 232.925 95.0304ZM236.697 91.7263C235.378 92.0493 234.602 93.2995 234.907 94.5455C235.23 95.8653 236.48 96.6409 237.726 96.3359C239.046 96.0129 239.822 94.7627 239.517 93.5168C239.194 92.1969 237.943 91.4214 236.697 91.7263Z" fill="white"/>
<path fillRule="evenodd" clip-rule="evenodd" d="M246.59 106.158C245.999 103.745 247.537 101.445 249.877 100.873C252.291 100.282 254.59 101.82 255.163 104.16C255.754 106.573 254.215 108.873 251.876 109.446C249.462 110.036 247.162 108.498 246.59 106.158ZM250.362 102.854C249.042 103.177 248.267 104.427 248.572 105.673C248.895 106.993 250.145 107.769 251.391 107.464C252.711 107.141 253.486 105.891 253.181 104.645C252.858 103.325 251.608 102.549 250.362 102.854Z" fill="white"/>
<path d="M57.4458 -126.453C57.4458 -143.491 71.2577 -157.302 88.2955 -157.302H200.375C217.412 -157.302 231.224 -143.491 231.224 -126.453V114.175C231.224 131.213 217.412 145.025 200.375 145.025H88.2955C71.2577 145.025 57.4458 131.213 57.4458 114.175V-126.453Z" fill="#839EFC"/>
<path d="M61.144 -131.29C61.144 -146.115 73.1616 -158.132 87.9861 -158.132H200.685C215.509 -158.132 227.527 -146.114 227.527 -131.29V113.759C227.527 128.583 215.509 140.601 200.685 140.601H87.986C73.1616 140.601 61.144 128.583 61.144 113.759V-131.29Z" fill="#212121"/>
<path d="M66.5688 -133.319C66.5688 -144.586 75.7022 -153.719 86.9688 -153.719H201.758C213.025 -153.719 222.158 -144.586 222.158 -133.319V114.665C222.158 125.931 213.025 135.065 201.758 135.065H86.9688C75.7022 135.065 66.5688 125.931 66.5688 114.665V-133.319Z" fill="white"/>
<path d="M80.2173 79.6955C80.2173 75.8781 83.3119 72.7834 87.1293 72.7834H200.429C204.246 72.7834 207.341 75.8781 207.341 79.6955V104.009C207.341 107.826 204.246 110.921 200.429 110.921H87.1293C83.3119 110.921 80.2173 107.826 80.2173 104.009V79.6955Z" fill="#212121"/>
<path d="M86.5732 83.2969C86.5732 81.3987 88.1121 79.8599 90.0103 79.8599H106.442C108.34 79.8599 109.879 81.3987 109.879 83.2969V99.7288C109.879 101.627 108.34 103.166 106.442 103.166H90.0103C88.1121 103.166 86.5732 101.627 86.5732 99.7288V83.2969Z" fill="#F26C25"/>
<path fillRule="evenodd" clip-rule="evenodd" d="M96.765 88.4469C96.7562 87.905 96.9167 87.3732 97.2251 86.9223C97.3249 86.7864 97.4631 86.6817 97.6228 86.6211C97.7825 86.5604 97.9569 86.5463 98.1247 86.5805C98.2925 86.6147 98.4464 86.6958 98.5678 86.8138C98.6891 86.9318 98.7726 87.0817 98.808 87.2451C98.8777 87.6449 98.8063 88.0558 98.6056 88.411C98.4219 88.7722 98.1637 89.0925 97.8469 89.3518C97.5302 89.6111 97.1618 89.8038 96.765 89.9177V88.4469ZM103.152 95.3345C102.996 95.5555 102.79 95.7395 102.552 95.873C102.313 96.0065 102.046 96.086 101.771 96.1058C101.238 96.1058 101.293 95.4242 101.293 95.0475V93.487C101.311 93.1884 101.311 92.8889 101.293 92.5902C101.284 92.1721 101.115 91.7722 100.819 91.4699C100.522 91.1676 100.12 90.9849 99.6915 90.958C97.9798 90.958 97.2988 92.5185 96.8018 93.8458V90.9221C98.2927 90.7069 100.373 89.8818 100.483 88.0164C100.593 84.8596 95.1085 84.734 95.1269 88.7339V89.9177C94.3907 89.81 93.8017 88.7697 93.5256 88.124C93.5218 88.1027 93.5132 88.0825 93.5003 88.065C93.4873 88.0474 93.4705 88.0329 93.4511 88.0226C93.4316 88.0122 93.41 88.0063 93.3878 88.0052C93.3657 88.0042 93.3436 88.008 93.3232 88.0164C93.1072 88.0658 92.9096 88.1728 92.7524 88.3254C92.5952 88.478 92.4847 88.6701 92.4332 88.8804C92.3816 89.0907 92.391 89.3108 92.4604 89.5161C92.5299 89.7215 92.6565 89.904 92.8262 90.0432C93.4549 90.6016 94.2763 90.909 95.1269 90.9042C95.1269 93.218 95.1269 94.635 95.1269 96.9488C95.1269 97.2717 95.6239 97.3613 95.8815 97.3613C96.1392 97.3613 96.7466 97.3613 96.765 96.9129C96.8754 95.765 97.851 92.4288 99.1946 92.4288C99.5075 92.4288 99.6547 92.6261 99.6547 92.931V95.6574C99.6396 95.9018 99.6761 96.1467 99.7618 96.3769C99.8475 96.6071 99.9807 96.8177 100.153 96.9958C100.326 97.174 100.534 97.3158 100.764 97.4126C100.995 97.5094 101.244 97.5591 101.495 97.5586C102.033 97.5092 102.547 97.3154 102.979 96.9988C103.411 96.6822 103.745 96.2551 103.943 95.765C103.98 95.4242 103.336 95.1013 103.152 95.3345Z" fill="white"/>
<path d="M81 40.0002C81 37.7911 82.7909 36.0002 85 36.0002H203.49C205.699 36.0002 207.49 37.7911 207.49 40.0002V56.5702C207.49 58.7794 205.699 60.5702 203.49 60.5702H85C82.7909 60.5702 81 58.7794 81 56.5702V40.0002Z" fill="#EFEFEF"/>
<path d="M86 42.7678C86 41.2393 86.0142 40.0002 86.0316 40.0002H86.9684C86.9858 40.0002 87 41.2393 87 42.7678V54.2326C87 55.7611 86.9858 57.0002 86.9684 57.0002H86.0316C86.0142 57.0002 86 55.7611 86 54.2326V42.7678Z" fill="#8A8A8A"/>
<path d="M119.279 93.4076L120.319 93.6084C121.134 93.762 122.078 94.0572 122.078 94.9312C122.078 95.7579 121.263 96.2186 120.248 96.2186C119.067 96.2186 118.311 95.628 118.051 94.4588H116.575C116.752 96.3367 118.146 97.4468 120.177 97.4468C121.866 97.4468 123.578 96.5611 123.578 94.8367C123.578 93.1124 122.149 92.5691 120.649 92.2738L119.598 92.0731C118.866 91.9313 118.323 91.6006 118.323 90.9393C118.323 90.1007 119.303 89.8054 119.964 89.8054C120.803 89.8054 121.7 90.1007 121.948 91.1282H123.401C123.059 89.3448 121.736 88.5771 120.047 88.5771C118.476 88.5771 116.811 89.3803 116.811 90.9865C116.811 92.4392 117.933 93.136 119.279 93.4076Z" fill="white"/>
<path d="M124.393 95.5454C124.393 96.7028 125.361 97.4468 126.743 97.4468C127.676 97.4468 128.432 97.1162 128.833 96.4311C128.857 96.8681 128.904 97.0217 128.951 97.2933H130.239C130.121 96.7618 130.05 95.9233 130.05 95.1202C130.05 94.5415 130.073 93.7974 130.073 93.4785C130.109 91.4471 128.916 90.7503 127.392 90.7503C125.857 90.7503 124.782 91.6361 124.688 92.9352H126.07C126.105 92.1675 126.637 91.7896 127.345 91.7896C128.042 91.7896 128.668 92.1203 128.668 93.2069V93.325C126.341 93.5612 124.393 93.9627 124.393 95.5454ZM128.703 94.3052V94.7895C128.703 95.8642 128.089 96.3957 127.05 96.3957C126.341 96.3957 125.881 96.065 125.881 95.5099C125.881 94.7777 126.696 94.4942 128.703 94.3052Z" fill="white"/>
<path d="M133.537 95.4745L132.073 90.9393H130.526L132.841 97.2933H134.163L136.455 90.9393H134.99L133.537 95.4745Z" fill="white"/>
<path d="M138.589 88.7307H137.183V90.1479H138.589V88.7307ZM138.589 90.9393H137.183V97.2933H138.589V90.9393Z" fill="white"/>
<path d="M141.514 91.825V90.9393H140.108V97.2933H141.514V93.9155C141.514 92.7699 141.915 91.9431 142.99 91.9431C144.065 91.9431 144.195 92.7817 144.195 93.6439V97.2933H145.6V93.3014C145.6 91.7896 144.974 90.7975 143.439 90.7975C142.553 90.7975 141.88 91.1637 141.514 91.825Z" fill="white"/>
<path d="M151.217 90.9393V91.7896C150.839 91.1637 150.178 90.7975 149.328 90.7975C147.828 90.7975 146.564 92.0022 146.564 93.9864C146.564 95.9705 147.828 97.187 149.328 97.187C150.178 97.187 150.839 96.8209 151.217 96.1949V96.939C151.217 97.3524 151.135 97.7421 150.898 98.0137C150.662 98.2972 150.261 98.4744 149.635 98.4744C148.796 98.4744 148.406 98.2263 148.276 97.6358H146.883C147.095 99.0295 148.206 99.5845 149.599 99.5845C150.591 99.5845 151.347 99.372 151.855 98.8995C152.363 98.4271 152.623 97.6949 152.623 96.6555V90.9393H151.217ZM149.635 91.9195C150.556 91.9195 151.276 92.5691 151.276 93.9864C151.276 95.4154 150.556 96.0768 149.635 96.0768C148.702 96.0768 148.028 95.2855 148.028 93.9864C148.028 92.7108 148.702 91.9195 149.635 91.9195Z" fill="white"/>
<path d="M157.762 92.6754H159.084C158.824 91.3999 157.691 90.7975 156.451 90.7975C155.069 90.7975 153.864 91.518 153.864 92.64C153.864 93.7974 154.703 94.2816 155.777 94.4942L156.734 94.6832C157.36 94.8013 157.832 95.0375 157.832 95.5572C157.832 96.0768 157.289 96.3839 156.557 96.3839C155.73 96.3839 155.258 96.006 155.128 95.3564H153.758C153.911 96.5611 154.951 97.4468 156.51 97.4468C157.951 97.4468 159.202 96.7146 159.202 95.3918C159.202 94.1517 158.222 93.7502 156.935 93.5021L156.037 93.325C155.494 93.2187 155.187 92.9943 155.187 92.5691C155.187 92.1439 155.754 91.8723 156.368 91.8723C157.077 91.8723 157.608 92.0967 157.762 92.6754Z" fill="white"/>
<path d="M163.021 88.7307V97.2933H164.521V93.5139H168.737V92.2738H164.521V89.9826H168.997V88.7307H163.021Z" fill="white"/>
<path d="M175.573 94.1281C175.573 91.8369 173.991 90.7975 172.443 90.7975C170.896 90.7975 169.314 91.8369 169.314 94.1281C169.314 96.4193 170.896 97.4468 172.443 97.4468C173.991 97.4468 175.573 96.4193 175.573 94.1281ZM172.443 96.3012C171.558 96.3012 170.766 95.5926 170.766 94.1281C170.766 92.6636 171.558 91.9431 172.443 91.9431C173.329 91.9431 174.12 92.6636 174.12 94.1281C174.12 95.5926 173.329 96.3012 172.443 96.3012Z" fill="white"/>
<path d="M180.587 96.4193V97.2933H181.993V90.9393H180.587V94.3289C180.587 95.4745 180.209 96.3012 179.158 96.3012C178.107 96.3012 177.989 95.4627 177.989 94.6005V90.9393H176.583V94.943C176.583 96.4548 177.198 97.4468 178.709 97.4468C179.571 97.4468 180.221 97.0807 180.587 96.4193Z" fill="white"/>
<path d="M184.918 91.825V90.9393H183.513V97.2933H184.918V93.9155C184.918 92.7699 185.32 91.9431 186.394 91.9431C187.469 91.9431 187.599 92.7817 187.599 93.6439V97.2933H189.004V93.3014C189.004 91.7896 188.378 90.7975 186.843 90.7975C185.957 90.7975 185.284 91.1637 184.918 91.825Z" fill="white"/>
<path d="M194.622 88.7307V91.7896C194.244 91.1637 193.582 90.7975 192.732 90.7975C191.232 90.7975 189.968 92.0849 189.968 94.1163C189.968 96.1595 191.232 97.4468 192.732 97.4468C193.582 97.4468 194.244 97.0807 194.622 96.4548V97.2933H196.027V88.7307H194.622ZM193.039 91.9431C193.96 91.9431 194.681 92.6518 194.681 94.1163C194.681 95.5808 193.96 96.3012 193.039 96.3012C192.106 96.3012 191.433 95.4627 191.433 94.1163C191.433 92.7817 192.106 91.9431 193.039 91.9431Z" fill="white"/>
<path d="M197.729 94.7777H198.65L198.886 91.081V88.7307H197.469V91.081L197.729 94.7777ZM197.374 97.2933H198.981V95.6871H197.374V97.2933Z" fill="white"/>
<path d="M97.5948 24.3903H95.4199V30.9878H96.5756V28.4944H97.613C99.1691 28.4944 100.398 28.1304 100.398 26.4651C100.398 24.6269 99.0417 24.3903 97.5948 24.3903ZM96.5756 25.3185H97.5948C98.4047 25.3185 99.1964 25.4004 99.1964 26.4742C99.1964 27.4206 98.523 27.548 97.6494 27.548H96.5756V25.3185Z" fill="#9E9E9E"/>
<path d="M103.782 28.2032L105.174 30.9878H106.475L104.965 27.9939C105.784 27.7118 106.202 27.1385 106.202 26.2922C106.202 24.8271 105.21 24.3903 103.263 24.3903H101.161V30.9878H102.316V28.2123H103.436C103.554 28.2123 103.672 28.2123 103.782 28.2032ZM102.316 25.3185H103.427C104.337 25.3185 105.019 25.4368 105.019 26.3013C105.019 27.093 104.455 27.2932 103.463 27.2932H102.316V25.3185Z" fill="#9E9E9E"/>
<path d="M110.044 31.1061C111.982 31.1061 113.193 29.7138 113.193 27.6845C113.193 25.6552 111.982 24.272 110.044 24.272C108.106 24.272 106.895 25.6552 106.895 27.6845C106.895 29.7138 108.106 31.1061 110.044 31.1061ZM110.044 30.1597C108.952 30.1597 108.087 29.2861 108.087 27.6845C108.087 26.0829 108.952 25.2184 110.044 25.2184C111.136 25.2184 112 26.0829 112 27.6845C112 29.2861 111.136 30.1597 110.044 30.1597Z" fill="#9E9E9E"/>
<path d="M117.063 30.9878H118.236L119.911 25.6461V30.9878H121.039V24.3903H119.247L117.654 29.6501L116.052 24.3903H114.26V30.9878H115.388V25.6461L117.063 30.9878Z" fill="#9E9E9E"/>
<path d="M125.249 31.1061C127.187 31.1061 128.398 29.7138 128.398 27.6845C128.398 25.6552 127.187 24.272 125.249 24.272C123.311 24.272 122.101 25.6552 122.101 27.6845C122.101 29.7138 123.311 31.1061 125.249 31.1061ZM125.249 30.1597C124.157 30.1597 123.293 29.2861 123.293 27.6845C123.293 26.0829 124.157 25.2184 125.249 25.2184C126.341 25.2184 127.206 26.0829 127.206 27.6845C127.206 29.2861 126.341 30.1597 125.249 30.1597Z" fill="#9E9E9E"/>
<path d="M137.195 28.7947H136.085C135.885 29.6956 135.248 30.1597 134.356 30.1597C133.3 30.1597 132.49 29.2679 132.49 27.6663C132.49 26.0738 133.319 25.2184 134.365 25.2184C135.22 25.2184 135.867 25.6916 136.067 26.5834H137.177C136.913 25.1092 135.867 24.272 134.401 24.272C132.49 24.272 131.298 25.5915 131.298 27.6663C131.298 29.732 132.418 31.1061 134.347 31.1061C135.867 31.1061 136.922 30.2689 137.195 28.7947Z" fill="#9E9E9E"/>
<path d="M141.121 31.1061C143.059 31.1061 144.269 29.7138 144.269 27.6845C144.269 25.6552 143.059 24.272 141.121 24.272C139.183 24.272 137.972 25.6552 137.972 27.6845C137.972 29.7138 139.183 31.1061 141.121 31.1061ZM141.121 30.1597C140.029 30.1597 139.164 29.2861 139.164 27.6845C139.164 26.0829 140.029 25.2184 141.121 25.2184C142.213 25.2184 143.077 26.0829 143.077 27.6845C143.077 29.2861 142.213 30.1597 141.121 30.1597Z" fill="#9E9E9E"/>
<path d="M147.138 24.3903H145.337V30.9878H147.138C149.231 30.9878 150.824 30.2598 150.824 27.6845C150.824 25.1092 149.231 24.3903 147.138 24.3903ZM147.084 25.3185C148.349 25.3185 149.623 25.6006 149.623 27.6845C149.623 29.7775 148.349 30.0596 147.084 30.0596H146.492V25.3185H147.084Z" fill="#9E9E9E"/>
<path d="M151.877 24.3903V30.9878H156.546V30.0141H153.033V28.0758H156.354V27.1203H153.033V25.3549H156.546V24.3903H151.877Z" fill="#9E9E9E"/>
<path d="M34.7444 86.037C34.7738 85.9526 34.8287 85.8794 34.9015 85.8276C34.9744 85.7759 35.0615 85.748 35.1509 85.748C35.2402 85.748 35.3273 85.7759 35.4002 85.8276C35.473 85.8794 35.5279 85.9526 35.5573 86.037L38.3627 93.6562C38.4125 93.7703 38.5036 93.8613 38.6177 93.9112L46.2369 96.7166C46.3213 96.746 46.3945 96.8009 46.4462 96.8737C46.498 96.9465 46.5259 97.0337 46.5259 97.123C46.5259 97.2124 46.498 97.2996 46.4462 97.3724C46.3945 97.4452 46.3213 97.5001 46.2369 97.5295L38.6177 100.335C38.5036 100.385 38.4125 100.476 38.3627 100.59L35.5573 108.209C35.5279 108.294 35.473 108.367 35.4002 108.418C35.3273 108.47 35.2402 108.498 35.1509 108.498C35.0615 108.498 34.9744 108.47 34.9015 108.418C34.8287 108.367 34.7738 108.294 34.7444 108.209L31.939 100.59C31.8892 100.476 31.7981 100.385 31.684 100.335L24.0648 97.5295C23.9804 97.5001 23.9072 97.4452 23.8555 97.3724C23.8037 97.2996 23.7759 97.2124 23.7759 97.123C23.7759 97.0337 23.8037 96.9465 23.8555 96.8737C23.9072 96.8009 23.9804 96.746 24.0648 96.7166L31.684 93.9112C31.7981 93.8613 31.8892 93.7703 31.939 93.6562L34.7444 86.037Z" fill="#FFC74F"/>
<path d="M250.512 40.9225C250.534 40.8583 250.576 40.8027 250.631 40.7634C250.687 40.724 250.753 40.7029 250.821 40.7029C250.889 40.7029 250.955 40.724 251.01 40.7634C251.066 40.8027 251.107 40.8583 251.13 40.9225L253.262 46.713C253.3 46.7998 253.369 46.869 253.456 46.9069L259.246 49.039C259.31 49.0613 259.366 49.103 259.405 49.1584C259.445 49.2137 259.466 49.28 259.466 49.3479C259.466 49.4158 259.445 49.482 259.405 49.5374C259.366 49.5927 259.31 49.6345 259.246 49.6568L253.456 51.7889C253.369 51.8268 253.3 51.896 253.262 51.9827L251.13 57.7733C251.107 57.8375 251.066 57.8931 251.01 57.9324C250.955 57.9718 250.889 57.9929 250.821 57.9929C250.753 57.9929 250.687 57.9718 250.631 57.9324C250.576 57.8931 250.534 57.8375 250.512 57.7733L248.38 51.9827C248.342 51.896 248.273 51.8268 248.186 51.7889L242.395 49.6568C242.331 49.6345 242.276 49.5927 242.236 49.5374C242.197 49.482 242.176 49.4158 242.176 49.3479C242.176 49.28 242.197 49.2137 242.236 49.1584C242.276 49.103 242.331 49.0613 242.395 49.039L248.186 46.9069C248.273 46.869 248.342 46.7998 248.38 46.713L250.512 40.9225Z" fill="#FFC74F"/>
<path d="M235.205 135.902C235.215 135.872 235.235 135.845 235.261 135.827C235.287 135.808 235.319 135.798 235.351 135.798C235.383 135.798 235.414 135.808 235.441 135.827C235.467 135.845 235.487 135.872 235.497 135.902L236.507 138.645C236.525 138.686 236.558 138.719 236.599 138.737L239.342 139.747C239.372 139.757 239.399 139.777 239.417 139.803C239.436 139.83 239.446 139.861 239.446 139.893C239.446 139.925 239.436 139.957 239.417 139.983C239.399 140.009 239.372 140.029 239.342 140.039L236.599 141.049C236.558 141.067 236.525 141.1 236.507 141.141L235.497 143.884C235.487 143.914 235.467 143.941 235.441 143.959C235.414 143.978 235.383 143.988 235.351 143.988C235.319 143.988 235.287 143.978 235.261 143.959C235.235 143.941 235.215 143.914 235.205 143.884L234.195 141.141C234.177 141.1 234.144 141.067 234.103 141.049L231.36 140.039C231.329 140.029 231.303 140.009 231.285 139.983C231.266 139.957 231.256 139.925 231.256 139.893C231.256 139.861 231.266 139.83 231.285 139.803C231.303 139.777 231.329 139.757 231.36 139.747L234.103 138.737C234.144 138.719 234.177 138.686 234.195 138.645L235.205 135.902Z" fill="#FFC74F"/>
<path d="M46.3308 125.017C46.3449 124.976 46.3713 124.941 46.4062 124.916C46.4412 124.891 46.483 124.878 46.5259 124.878C46.5688 124.878 46.6106 124.891 46.6456 124.916C46.6805 124.941 46.7069 124.976 46.721 125.017L48.0676 128.674C48.0915 128.729 48.1352 128.772 48.19 128.796L51.8472 130.143C51.8877 130.157 51.9228 130.183 51.9477 130.218C51.9725 130.253 51.9859 130.295 51.9859 130.338C51.9859 130.381 51.9725 130.423 51.9477 130.458C51.9228 130.493 51.8877 130.519 51.8472 130.533L48.19 131.88C48.1352 131.904 48.0915 131.947 48.0676 132.002L46.721 135.659C46.7069 135.7 46.6805 135.735 46.6456 135.76C46.6106 135.785 46.5688 135.798 46.5259 135.798C46.483 135.798 46.4412 135.785 46.4062 135.76C46.3713 135.735 46.3449 135.7 46.3308 135.659L44.9842 132.002C44.9603 131.947 44.9166 131.904 44.8618 131.88L41.2046 130.533C41.1641 130.519 41.129 130.493 41.1041 130.458C41.0793 130.423 41.0659 130.381 41.0659 130.338C41.0659 130.295 41.0793 130.253 41.1041 130.218C41.129 130.183 41.1641 130.157 41.2046 130.143L44.8618 128.796C44.9166 128.772 44.9603 128.729 44.9842 128.674L46.3308 125.017Z" fill="#FFC74F"/>
<path d="M72.8239 33.878L15.5859 49.2148L23.7114 79.5396L80.9493 64.2027L72.8239 33.878Z" fill="#B5EB80"/>
<path fillRule="evenodd" clip-rule="evenodd" d="M18.9204 52.3844C18.815 51.9909 19.0485 51.5864 19.442 51.4809L70.2359 37.8708C70.6295 37.7653 71.034 37.9988 71.1394 38.3924L77.3351 61.515C77.4405 61.9085 77.207 62.313 76.8135 62.4185L26.0196 76.0286C25.626 76.1341 25.2215 75.9005 25.1161 75.507L18.9204 52.3844ZM20.5364 52.7151L26.3503 74.4126L75.7191 61.1843L69.9052 39.4868L20.5364 52.7151Z" fill="#006B46"/>
<path fillRule="evenodd" clip-rule="evenodd" d="M45.7568 49.6139C41.754 50.6865 39.3786 54.8008 40.4511 58.8036C41.5236 62.8064 45.638 65.1819 49.6408 64.1093C53.6436 63.0368 56.019 58.9224 54.9465 54.9196C53.8739 50.9168 49.7596 48.5414 45.7568 49.6139ZM39.026 59.1855C37.7426 54.3956 40.5851 49.4723 45.3749 48.1888C50.1648 46.9054 55.0881 49.7479 56.3716 54.5378C57.655 59.3276 54.8125 64.251 50.0227 65.5344C45.2328 66.8178 40.3094 63.9753 39.026 59.1855Z" fill="#006B46"/>
<path fillRule="evenodd" clip-rule="evenodd" d="M62.7342 51.5649C62.2545 51.6935 61.8635 52.2881 62.0579 53.0138C62.2524 53.7395 62.8883 54.059 63.3681 53.9305C63.8479 53.8019 64.2388 53.2073 64.0444 52.4816C63.8499 51.7559 63.214 51.4364 62.7342 51.5649ZM60.6329 53.3957C60.2664 52.0279 60.948 50.5162 62.3524 50.1399C63.7568 49.7636 65.103 50.7319 65.4695 52.0997C65.836 53.4675 65.1543 54.9792 63.7499 55.3555C62.3456 55.7318 60.9994 54.7635 60.6329 53.3957Z" fill="#006B46"/>
<path fillRule="evenodd" clip-rule="evenodd" d="M30.5135 60.1987C30.0338 60.3273 29.6428 60.9219 29.8372 61.6476C30.0317 62.3733 30.6676 62.6928 31.1474 62.5642C31.6272 62.4357 32.0181 61.841 31.8237 61.1153C31.6292 60.3897 30.9933 60.0702 30.5135 60.1987ZM28.4121 62.0295C28.0456 60.6617 28.7273 59.1499 30.1317 58.7736C31.536 58.3974 32.8823 59.3657 33.2488 60.7335C33.6153 62.1013 32.9336 63.613 31.5292 63.9893C30.1249 64.3656 28.7786 63.3973 28.4121 62.0295Z" fill="#006B46"/>
</g>
<path fillRule="evenodd" clip-rule="evenodd" d="M89.9777 24.5052V27.6566L86.3626 31.1446C86.0948 31.403 85.6693 31.3992 85.4061 31.1361L82.8106 28.5406C82.5403 28.2606 82.548 27.8285 82.8193 27.5668L86.4169 24.0957H89.5682C89.7944 24.0957 89.9777 24.279 89.9777 24.5052ZM87.9301 26.8256C88.3071 26.8256 88.6126 26.5201 88.6126 26.1431C88.6126 25.7662 88.3071 25.4606 87.9301 25.4606C87.5532 25.4606 87.2476 25.7662 87.2476 26.1431C87.2476 26.5201 87.5532 26.8256 87.9301 26.8256Z" fill="#9E9E9E"/>
<path d="M89.9777 27.6566L90.0463 27.7276L90.0765 27.6985V27.6566H89.9777ZM86.3626 31.1446L86.294 31.0736L86.3626 31.1446ZM85.4061 31.1361L85.3363 31.2059L85.4061 31.1361ZM82.8106 28.5406L82.7395 28.6091L82.7408 28.6104L82.8106 28.5406ZM82.8193 27.5668L82.7507 27.4957L82.8193 27.5668ZM86.4169 24.0957V23.997H86.377L86.3483 24.0246L86.4169 24.0957ZM90.0765 27.6566V24.5052H89.879V27.6566H90.0765ZM86.4311 31.2157L90.0463 27.7276L89.9092 27.5855L86.294 31.0736L86.4311 31.2157ZM85.3363 31.2059C85.6375 31.5071 86.1246 31.5115 86.4311 31.2157L86.294 31.0736C86.0649 31.2946 85.701 31.2913 85.4759 31.0663L85.3363 31.2059ZM82.7408 28.6104L85.3363 31.2059L85.4759 31.0663L82.8804 28.4707L82.7408 28.6104ZM82.7507 27.4957C82.4394 27.7961 82.4322 28.2907 82.7395 28.6091L82.8816 28.472C82.6484 28.2304 82.6567 27.8609 82.8879 27.6379L82.7507 27.4957ZM86.3483 24.0246L82.7507 27.4957L82.8879 27.6379L86.4854 24.1668L86.3483 24.0246ZM89.5682 23.997H86.4169V24.1944H89.5682V23.997ZM90.0765 24.5052C90.0765 24.2245 89.8489 23.997 89.5682 23.997V24.1944C89.7399 24.1944 89.879 24.3336 89.879 24.5052H90.0765ZM88.5139 26.1431C88.5139 26.4655 88.2525 26.7269 87.9301 26.7269V26.9244C88.3616 26.9244 88.7114 26.5746 88.7114 26.1431H88.5139ZM87.9301 25.5594C88.2525 25.5594 88.5139 25.8207 88.5139 26.1431H88.7114C88.7114 25.7117 88.3616 25.3619 87.9301 25.3619V25.5594ZM87.3464 26.1431C87.3464 25.8207 87.6077 25.5594 87.9301 25.5594V25.3619C87.4987 25.3619 87.1489 25.7117 87.1489 26.1431H87.3464ZM87.9301 26.7269C87.6077 26.7269 87.3464 26.4655 87.3464 26.1431H87.1489C87.1489 26.5746 87.4987 26.9244 87.9301 26.9244V26.7269Z" fill="#9E9E9E"/>
</g>
<defs>
<linearGradient id="paint0_linear_2066_36576" x1="191.5" y1="51.3167" x2="191.5" y2="87.6041" gradientUnits="userSpaceOnUse">
<stop stop-color="#51CAF3"/>
<stop offset="1" stop-color="#3A7DE1"/>
</linearGradient>
<clipPath id="clip0_2066_36576">
<rect width="288" height="152.8" rx="6.31944" fill="white"/>
</clipPath>
<clipPath id="clip1_2066_36576">
<rect width="269.36" height="269.36" fill="white" transform="translate(9.21582 -104.442)"/>
</clipPath>
</defs>
</svg>
