<svg xmlns="http://www.w3.org/2000/svg" width="25" height="25"><path style="text-indent:0;text-align:start;line-height:normal;text-transform:none;block-progression:tb;marker:none;-inkscape-font-specification:Sans" d="M12.5 0C5.602 0 0 5.602 0 12.5S5.602 25 12.5 25 25 19.398 25 12.5 19.398 0 12.5 0zm0 .969A11.519 11.519 0 0 1 24.031 12.5c0 6.378-5.153 11.563-11.531 11.563C6.122 24.063.969 18.878.969 12.5A11.519 11.519 0 0 1 12.5.969zM12.531 4C10.091 3.989 8.067 5.932 8 8.344V9H6.5a.5.5 0 0 0-.5.5v10a.5.5 0 0 0 .5.5h12a.5.5 0 0 0 .5-.5v-10a.5.5 0 0 0-.5-.5H17v-.625C16.959 5.961 14.973 4.011 12.531 4zm0 1c1.915.01 3.437 1.5 3.469 3.375V9H9v-.656C9.052 6.47 10.617 4.99 12.531 5zM7 10h11v9H7v-9zm5.406 2a1 1 0 0 0-.906 1 1 1 0 0 0 .5.875.5.5 0 0 0 0 .094V16.5a.5.5 0 0 0 .5.5.5.5 0 0 0 .5-.563V13.97a.5.5 0 0 0 0-.094 1 1 0 0 0 .5-.875 1 1 0 0 0-1-1 1 1 0 0 0-.094 0z" color="#000" font-family="Sans" font-weight="400" overflow="visible"/></svg>