<svg xmlns="http://www.w3.org/2000/svg" width="32" height="32"><path d="M16 0C7.17 0 0 7.17 0 16s7.17 16 16 16 16-7.17 16-16S24.83 0 16 0zm0 .969C24.307.969 31.031 7.693 31.031 16S24.307 31.031 16 31.031.969 24.307.969 16 7.693.969 16 .969zm.5 7.531a3.513 3.513 0 0 0-3.5 3.406c-.002.078 0 .041 0 .094v1.813a.5.5 0 0 0 .031.187H11.5a.5.5 0 0 0-.5.5v9a.5.5 0 0 0 .5.5h10a.5.5 0 0 0 .5-.5v-9a.5.5 0 0 0-.5-.5h-1.531a.5.5 0 0 0 .031-.188v-1.781c0-.052.002-.019 0-.094-.039-1.894-1.597-3.437-3.5-3.437zm0 1a2.485 2.485 0 0 1 2.5 2.438v1.875a.5.5 0 0 0 .031.187H13.97a.5.5 0 0 0 .031-.188V12c0-.053.002-.133 0-.063A2.502 2.502 0 0 1 16.5 9.5zM12 15h9v8h-9v-8zm4.5 1c-.823 0-1.5.677-1.5 1.5 0 .647.421 1.198 1 1.406v2.407a.5.5 0 1 0 1 0v-2.407c.579-.208 1-.76 1-1.406 0-.823-.677-1.5-1.5-1.5zm0 1c.282 0 .5.218.5.5 0 .282-.218.5-.5.5a.493.493 0 0 1-.5-.5c0-.282.218-.5.5-.5z" color="#000" font-family="Sans" font-weight="400" overflow="visible" style="text-indent:0;text-align:start;line-height:normal;text-transform:none;block-progression:tb;marker:none;-inkscape-font-specification:Sans"/></svg>