<svg width="16" height="18" viewBox="0 0 16 18" fill="none" xmlns="http://www.w3.org/2000/svg">
<path d="M13.7469 4.57316C13.9664 3.17265 13.7458 2.21981 12.988 1.35697C12.1542 0.407032 10.648 0 8.72085 0H3.12633C2.73266 0 2.39704 0.286839 2.3355 0.675871L0.00594788 15.4475C-0.0399231 15.7395 0.185367 16.0026 0.480335 16.0026H3.93401L3.69537 17.5146C3.6553 17.7695 3.85272 18 4.11111 18H7.02246C7.36679 18 7.66001 17.7492 7.71401 17.4089L7.74246 17.2608L8.29059 13.7834L8.32601 13.5912C8.38001 13.2509 8.67324 12.9995 9.01756 12.9995H9.45304C12.2732 12.9995 14.4814 11.8545 15.1265 8.54013C15.3965 7.15587 15.2572 5.99981 14.5441 5.18748C14.3281 4.94245 14.0599 4.73923 13.7469 4.57316Z" fill="#009CDE"/>
<path d="M13.7469 4.57316C13.9664 3.17265 13.7458 2.21981 12.988 1.35697C12.1542 0.407032 10.648 0 8.72085 0H3.12633C2.73266 0 2.39704 0.286839 2.3355 0.675871L0.00594788 15.4475C-0.0399231 15.7395 0.185367 16.0026 0.480335 16.0026H3.93401L4.8015 10.501L4.77479 10.674C4.83633 10.2844 5.16846 9.99813 5.56272 9.99813H7.20421C10.4279 9.99813 12.952 8.68819 13.69 4.90064C13.7115 4.78858 13.7301 4.68058 13.7469 4.57316Z" fill="#012169"/>
<path d="M5.73401 4.59174C5.77059 4.35774 5.92098 4.16613 6.12304 4.06916C6.21479 4.02503 6.31756 4.00065 6.42556 4.00065H10.8112C11.3309 4.00065 11.8151 4.0349 12.2581 4.10632C12.3847 4.12665 12.5078 4.14987 12.6274 4.17658C12.747 4.20271 12.8632 4.23232 12.9758 4.26542C13.0321 4.28168 13.0873 4.2991 13.1419 4.3171C13.3596 4.38968 13.5623 4.47445 13.7481 4.57316C13.9676 3.17265 13.7469 2.21981 12.9892 1.35697C12.1542 0.407032 10.648 0 8.72085 0H3.12634C2.73266 0 2.39704 0.286839 2.3355 0.675871L0.00594788 15.4475C-0.0399231 15.7395 0.185367 16.0026 0.480335 16.0026H3.93401L4.8015 10.501L5.73401 4.59174Z" fill="#003087"/>
</svg>
